<svg viewBox="0 0 240 240" xmlns="http://www.w3.org/2000/svg" aria-hidden="true"><defs><linearGradient id="f-gold" x1="0" y1="0" x2="0.35" y2="1"><stop offset="0" stop-color="#fff3c4"></stop><stop offset="0.16" stop-color="#f5d273"></stop><stop offset="0.45" stop-color="#dcaa42"></stop><stop offset="0.75" stop-color="#ad7820"></stop><stop offset="1" stop-color="#6a430e"></stop></linearGradient><radialGradient id="f-face" cx="0.46" cy="0.34" r="0.78"><stop offset="0" stop-color="#fff0b8"></stop><stop offset="0.3" stop-color="#f1c862"></stop><stop offset="0.66" stop-color="#c48d2c"></stop><stop offset="1" stop-color="#6e4610"></stop></radialGradient><linearGradient id="f-lap" x1="0" y1="0" x2="0" y2="1"><stop offset="0" stop-color="#4a6fe0"></stop><stop offset="0.45" stop-color="#2341a6"></stop><stop offset="1" stop-color="#0c1a58"></stop></linearGradient><radialGradient id="f-scl" cx="0.5" cy="0.4" r="0.6"><stop offset="0" stop-color="#f3ede0"></stop><stop offset="1" stop-color="#a99b80"></stop></radialGradient><radialGradient id="f-iris" cx="0.45" cy="0.42" r="0.6"><stop offset="0" stop-color="#fff1e2"></stop><stop offset="0.28" stop-color="#ff7253"></stop><stop offset="0.62" stop-color="#e3141a"></stop><stop offset="1" stop-color="#4d0004"></stop></radialGradient><radialGradient id="f-halo"><stop offset="0" stop-color="#ff3a22" stop-opacity="0.85"></stop><stop offset="0.35" stop-color="#ff1e10" stop-opacity="0.35"></stop><stop offset="1" stop-color="#ff0000" stop-opacity="0"></stop></radialGradient><radialGradient id="f-shade" cx="0.5" cy="0.42" r="0.62"><stop offset="0.55" stop-color="#000" stop-opacity="0"></stop><stop offset="1" stop-color="#120800" stop-opacity="0.6"></stop></radialGradient><linearGradient id="f-frost" x1="0" y1="0" x2="0" y2="1"><stop offset="0" stop-color="#e6fbff" stop-opacity="0.42"></stop><stop offset="0.28" stop-color="#bdefff" stop-opacity="0.12"></stop><stop offset="0.55" stop-color="#bdefff" stop-opacity="0"></stop></linearGradient><linearGradient id="f-sheen" x1="0" y1="0" x2="1" y2="1"><stop offset="0.25" stop-color="#fff" stop-opacity="0"></stop><stop offset="0.42" stop-color="#fff" stop-opacity="0.22"></stop><stop offset="0.5" stop-color="#fff" stop-opacity="0"></stop></linearGradient><radialGradient id="f-cheek" cx="0.5" cy="0.5" r="0.5"><stop offset="0" stop-color="#5a3507" stop-opacity="0.38"></stop><stop offset="1" stop-color="#5a3507" stop-opacity="0"></stop></radialGradient><radialGradient id="f-bgg" cx="0.5" cy="0.38" r="0.75"><stop offset="0" stop-color="#1a2c4d"></stop><stop offset="0.6" stop-color="#0a1222"></stop><stop offset="1" stop-color="#04060b"></stop></radialGradient><radialGradient id="f-aura" cx="0.5" cy="0.45" r="0.5"><stop offset="0" stop-color="#5fd8ff" stop-opacity="0.16"></stop><stop offset="1" stop-color="#5fd8ff" stop-opacity="0"></stop></radialGradient><filter id="f-bloom" x="-200%" y="-200%" width="500%" height="500%"><feGaussianBlur stdDeviation="3.2"></feGaussianBlur></filter><filter id="f-soft" x="-100%" y="-100%" width="300%" height="300%"><feGaussianBlur stdDeviation="1.2" result="b"></feGaussianBlur><feMerge><feMergeNode in="b"></feMergeNode><feMergeNode in="SourceGraphic"></feMergeNode></feMerge></filter><filter id="f-drop" x="-20%" y="-20%" width="140%" height="140%"><feDropShadow dx="0" dy="4" stdDeviation="5" flood-color="#000" flood-opacity="0.55"></feDropShadow></filter><clipPath id="f-hd"><path d="M120 16C148 16 167 30 173 56L180 96L212 134Q217 141 210 146L190 150L190 222Q174 228 158 224L153 166L87 166L82 224Q66 228 50 222L50 150L30 146Q23 141 28 134L60 96L67 56C73 30 92 16 120 16Z"></path></clipPath><clipPath id="f-bd"><path d="M113.5 160L126.5 160L129.5 204Q130 212 120 216Q110 212 110.5 204Z"></path></clipPath><clipPath id="f-col"><path clip-rule="evenodd" d="M0 149H240V240H0ZM120 150m-44 0a44 42 0 1 0 88 0a44 42 0 1 0 -88 0Z"></path></clipPath><clipPath id="f-tile"><rect width="240" height="240" rx="54"></rect></clipPath><clipPath id="f-fc"><path d="M84 62Q120 54 156 62C158 74 159 88 158 102C157 132 144 158 120 168C96 158 83 132 82 102C81 88 82 74 84 62Z"></path></clipPath></defs><rect width="240" height="240" rx="54" fill="url(#f-bgg)"></rect><circle cx="120" cy="108" r="104" fill="url(#f-aura)"></circle><g clip-path="url(#f-tile)"><g transform="translate(-26.400000000000006 -14.199999999999989) scale(1.22)"><g data-part="breath"><g><path d="M88 132L152 132L154 196L86 196Z" fill="url(#f-face)"></path><rect x="86" y="132" width="68" height="64" fill="url(#f-cheek)"></rect><g clip-path="url(#f-col)"><ellipse cx="120" cy="146" rx="97" ry="90" fill="url(#f-gold)"></ellipse><ellipse cx="120" cy="146" rx="92" ry="85" fill="url(#f-lap)"></ellipse><ellipse cx="120" cy="146" rx="84" ry="77" fill="url(#f-gold)"></ellipse><ellipse cx="120" cy="146" rx="79" ry="72" fill="#9c2c18"></ellipse><ellipse cx="120" cy="146" rx="73" ry="66" fill="url(#f-gold)"></ellipse><ellipse cx="120" cy="146" rx="68" ry="61" fill="url(#f-lap)"></ellipse><ellipse cx="120" cy="146" rx="61" ry="54" fill="url(#f-gold)"></ellipse><ellipse cx="120" cy="146" rx="56" ry="49" fill="#7d2414"></ellipse><ellipse cx="120" cy="146" rx="53" ry="46" fill="url(#f-gold)"></ellipse></g><path d="M67 168Q120 214 173 168" fill="none" stroke="#4a2e08" stroke-opacity="0.5" stroke-width="2" clip-path="url(#f-col)"></path><path d="M120 16C148 16 167 30 173 56L180 96L212 134Q217 141 210 146L190 150L190 222Q174 228 158 224L153 166L87 166L82 224Q66 228 50 222L50 150L30 146Q23 141 28 134L60 96L67 56C73 30 92 16 120 16Z" fill="url(#f-gold)"></path><g clip-path="url(#f-hd)"><g><path d="M0 4Q120 -14 240 4" fill="none" stroke="#08113d" stroke-width="9.5"></path><path d="M0 4Q120 -14 240 4" fill="none" stroke="url(#f-lap)" stroke-width="8"></path></g><g><path d="M0 25Q120 7 240 25" fill="none" stroke="#08113d" stroke-width="9.5"></path><path d="M0 25Q120 7 240 25" fill="none" stroke="url(#f-lap)" stroke-width="8"></path></g><g><path d="M0 46Q120 28 240 46" fill="none" stroke="#08113d" stroke-width="9.5"></path><path d="M0 46Q120 28 240 46" fill="none" stroke="url(#f-lap)" stroke-width="8"></path></g><g><path d="M0 67Q120 49 240 67" fill="none" stroke="#08113d" stroke-width="9.5"></path><path d="M0 67Q120 49 240 67" fill="none" stroke="url(#f-lap)" stroke-width="8"></path></g><g><path d="M0 88Q120 70 240 88" fill="none" stroke="#08113d" stroke-width="9.5"></path><path d="M0 88Q120 70 240 88" fill="none" stroke="url(#f-lap)" stroke-width="8"></path></g><g><path d="M0 109Q120 91 240 109" fill="none" stroke="#08113d" stroke-width="9.5"></path><path d="M0 109Q120 91 240 109" fill="none" stroke="url(#f-lap)" stroke-width="8"></path></g><g><path d="M0 130Q120 112 240 130" fill="none" stroke="#08113d" stroke-width="9.5"></path><path d="M0 130Q120 112 240 130" fill="none" stroke="url(#f-lap)" stroke-width="8"></path></g><g><path d="M0 151Q120 133 240 151" fill="none" stroke="#08113d" stroke-width="9.5"></path><path d="M0 151Q120 133 240 151" fill="none" stroke="url(#f-lap)" stroke-width="8"></path></g><g><path d="M0 172Q120 154 240 172" fill="none" stroke="#08113d" stroke-width="9.5"></path><path d="M0 172Q120 154 240 172" fill="none" stroke="url(#f-lap)" stroke-width="8"></path></g><g><path d="M0 193Q120 175 240 193" fill="none" stroke="#08113d" stroke-width="9.5"></path><path d="M0 193Q120 175 240 193" fill="none" stroke="url(#f-lap)" stroke-width="8"></path></g><g><path d="M0 214Q120 196 240 214" fill="none" stroke="#08113d" stroke-width="9.5"></path><path d="M0 214Q120 196 240 214" fill="none" stroke="url(#f-lap)" stroke-width="8"></path></g><g><path d="M0 235Q120 217 240 235" fill="none" stroke="#08113d" stroke-width="9.5"></path><path d="M0 235Q120 217 240 235" fill="none" stroke="url(#f-lap)" stroke-width="8"></path></g><rect width="240" height="240" fill="url(#f-shade)"></rect><rect width="240" height="240" fill="url(#f-frost)"></rect><rect width="240" height="240" fill="url(#f-sheen)"></rect></g><path d="M120 16C148 16 167 30 173 56L180 96L212 134Q217 141 210 146L190 150L190 222Q174 228 158 224L153 166L87 166L82 224Q66 228 50 222L50 150L30 146Q23 141 28 134L60 96L67 56C73 30 92 16 120 16Z" fill="none" stroke="#5a3a0a" stroke-width="2.4"></path><path d="M62 80L67 56C73 30 92 16 120 16C148 16 167 30 173 56L178 80" fill="none" stroke="#dff8ff" stroke-opacity="0.55" stroke-width="3" filter="url(#f-soft)"></path><path d="M84 62Q120 54 156 62C158 74 159 88 158 102C157 132 144 158 120 168C96 158 83 132 82 102C81 88 82 74 84 62Z" fill="url(#f-face)"></path><g clip-path="url(#f-fc)"><ellipse cx="88" cy="128" rx="16" ry="26" fill="url(#f-cheek)"></ellipse><ellipse cx="152" cy="128" rx="16" ry="26" fill="url(#f-cheek)"></ellipse><ellipse cx="120" cy="170" rx="34" ry="14" fill="url(#f-cheek)"></ellipse><ellipse cx="103" cy="97" rx="17" ry="11" fill="url(#f-cheek)"></ellipse><ellipse cx="137" cy="97" rx="17" ry="11" fill="url(#f-cheek)"></ellipse><ellipse cx="120" cy="66" rx="40" ry="7" fill="url(#f-cheek)"></ellipse><ellipse cx="111" cy="118" rx="5" ry="13" fill="url(#f-cheek)"></ellipse><rect x="80" y="54" width="80" height="120" fill="url(#f-frost)" opacity="0.6"></rect></g><path d="M84 62Q120 54 156 62C158 74 159 88 158 102C157 132 144 158 120 168C96 158 83 132 82 102C81 88 82 74 84 62Z" fill="none" stroke="#5a3a0a" stroke-width="2"></path><path d="M84 62Q120 54 156 62L156.4 66.5Q120 58.5 83.6 66.5Z" fill="url(#f-gold)" stroke="#5a3a0a" stroke-width="0.7"></path><g><path d="M113.5 121Q120 128 126.5 121" fill="none" stroke="#6e460f" stroke-width="2.2" stroke-linecap="round"></path><path d="M109 140Q120 135 131 140Q120 147 109 140Z" fill="#9c6a1e"></path></g><g><path d="M77 93.5Q91 79.5 117.5 84.2L117 88Q95 85.5 80 96Z" fill="url(#f-lap)" stroke="#060c2c" stroke-width="0"></path><path d="M89.5 97.2Q102 88.2 116.5 96.4Q103 104 89.5 97.2Z" fill="url(#f-scl)"></path><circle cx="104" cy="96.6" r="6.2" fill="url(#f-iris)"></circle><path d="M89.5 97.2Q102 88.2 116.5 96.4Q103 104 89.5 97.2Z" fill="none" stroke="#08103a" stroke-width="3.4" stroke-linejoin="round"></path><path d="M91 96.2L74.5 98.6L75.5 101.6L91 98.6Z" fill="#0b1752"></path></g><g transform="translate(240 0) scale(-1 1)"><g><path d="M77 93.5Q91 79.5 117.5 84.2L117 88Q95 85.5 80 96Z" fill="url(#f-lap)" stroke="#060c2c" stroke-width="0"></path><path d="M89.5 97.2Q102 88.2 116.5 96.4Q103 104 89.5 97.2Z" fill="url(#f-scl)"></path><circle cx="104" cy="96.6" r="6.2" fill="url(#f-iris)"></circle><path d="M89.5 97.2Q102 88.2 116.5 96.4Q103 104 89.5 97.2Z" fill="none" stroke="#08103a" stroke-width="3.4" stroke-linejoin="round"></path><path d="M91 96.2L74.5 98.6L75.5 101.6L91 98.6Z" fill="#0b1752"></path></g></g><path d="M113.5 160L126.5 160L129.5 204Q130 212 120 216Q110 212 110.5 204Z" fill="url(#f-lap)"></path><g clip-path="url(#f-bd)"><path d="M108 163L120 166.4L132 163" fill="none" stroke="url(#f-gold)" stroke-width="3"></path><path d="M108 171L120 174.4L132 171" fill="none" stroke="url(#f-gold)" stroke-width="3"></path><path d="M108 179L120 182.4L132 179" fill="none" stroke="url(#f-gold)" stroke-width="3"></path><path d="M108 187L120 190.4L132 187" fill="none" stroke="url(#f-gold)" stroke-width="3"></path><path d="M108 195L120 198.4L132 195" fill="none" stroke="url(#f-gold)" stroke-width="3"></path><path d="M108 203L120 206.4L132 203" fill="none" stroke="url(#f-gold)" stroke-width="3"></path><path d="M108 211L120 214.4L132 211" fill="none" stroke="url(#f-gold)" stroke-width="3"></path></g><path d="M113.5 160L126.5 160L129.5 204Q130 212 120 216Q110 212 110.5 204Z" fill="none" stroke="#5a3a0a" stroke-width="1.8"></path><path d="M110.4 204.5Q120 213 129.6 204.5L129.4 208Q120 218.5 110.6 208Z" fill="url(#f-gold)"></path><g><path d="M120 30C127.4 31 130.6 39 129.6 47C128.6 54.2 124.8 59.4 120 63C115.2 59.4 111.4 54.2 110.4 47C109.4 39 112.6 31 120 30Z" fill="url(#f-gold)" stroke="#5a3a0a" stroke-width="1.6"></path><path d="M120 35.5C124.4 36.6 125.9 41.8 125.3 47C124.7 52 122.6 55.2 120 57.6C117.4 55.2 115.3 52 114.7 47C114.1 41.8 115.6 36.6 120 35.5Z" fill="url(#f-lap)"></path><ellipse cx="120" cy="27.6" rx="4.6" ry="5.6" fill="url(#f-gold)" stroke="#5a3a0a" stroke-width="1.4"></ellipse></g></g><g data-part="eyes" opacity="1" style="mix-blend-mode:screen"><circle cx="104" cy="96.6" r="22" fill="url(#f-halo)"></circle><circle cx="104" cy="96.6" r="8.5" fill="#ff2d1c" filter="url(#f-bloom)"></circle><circle cx="104" cy="96.6" r="3.6" fill="#ffe2d0"></circle></g><g transform="translate(240 0) scale(-1 1)"><g data-part="eyes" opacity="1" style="mix-blend-mode:screen"><circle cx="104" cy="96.6" r="22" fill="url(#f-halo)"></circle><circle cx="104" cy="96.6" r="8.5" fill="#ff2d1c" filter="url(#f-bloom)"></circle><circle cx="104" cy="96.6" r="3.6" fill="#ffe2d0"></circle></g></g><g fill="#f4fdff" filter="url(#f-soft)"><path data-part="glint" d="M94 21L95.44 28.56L103 30L95.44 31.44L94 39L92.56 31.44L85 30L92.56 28.56Z" opacity="0.5"></path><path data-part="glint" d="M204 130L205.28 136.72L212 138L205.28 139.28L204 146L202.72 139.28L196 138L202.72 136.72Z" opacity="0.5"></path></g></g></g></g></svg>